<svg xmlns="http://www.w3.org/2000/svg" width="512" height="512" viewBox="0 0 512 512" preserveAspectRatio="xMidYMid meet"><g transform="matrix(.1 0 0 -.1 0 512)" fill="#007300"><circle cx="2560" cy="-2560" transform="scale(1 -1)" r="2200" fill="#ccff17"/><path d="M2400 5114c-343-44-423-60-620-122-341-107-664-295-941-544-324-293-580-692-711-1108-165-520-165-1040 0-1560 43-136 84-236 159-382C530 918 918 530 1398 287 1771 97 2147 6 2560 6c639 0 1241 233 1721 666 324 293 580 692 711 1108 85 268 122 506 122 780 0 640-233 1241-666 1721-396 437-947 727-1540 810-136 19-433 32-508 23zm925-704c257-43 456-137 619-290 69-65 166-191 166-217 0-19-34-16-63 7-82 65-316 157-497 196-120 27-498 27-650 1-234-40-459-121-637-227-288-174-527-427-662-703-186-383-213-877-69-1277 156-432 454-721 863-836 186-53 419-67 613-38 463 68 745 363 791 826 25 252-56 498-222 674-122 129-219 180-405 210-81 13-112 14-192 4-174-22-285-74-384-181-80-86-119-171-124-272-3-67 0-93 18-139 28-75 96-150 168-185 50-24 68-27 152-27 74 0 105 5 141 21 101 46 156 144 147 260-5 61-27 96-81 132-55 36-49 55 16 49 108-10 207-81 259-186 30-61 33-75 33-157s-3-96-34-160c-87-178-294-285-527-272-263 15-474 186-562 455-31 98-36 279-9 382 24 91 97 233 158 308 216 266 667 391 1051 293 384-99 656-398 753-826 16-71 23-247 14-349-39-445-313-852-709-1051-736-370-1762-93-2222 600-300 450-364 1121-161 1665 185 494 540 882 1025 1118 257 126 527 198 808 216 101 6 304-6 415-24z"/></g></svg>
