<svg xmlns="http://www.w3.org/2000/svg" width="512" height="512" viewBox="0 0 512 512" preserveAspectRatio="xMidYMid meet"><path d="M0 0h512v512H0z" fill="#007300"/><path d="M283.44 105.86c-22.429 1.437-43.981 7.183-64.495 17.241-38.713 18.838-67.048 49.808-81.815 89.239-16.203 43.422-11.094 96.981 12.852 132.9 36.717 55.315 118.611 77.425 177.359 47.892 31.608-15.884 53.48-48.37 56.592-83.89.718-8.141.159-22.19-1.118-27.857-7.743-34.163-29.454-58.029-60.105-65.931-30.651-7.823-66.649 2.154-83.89 23.386-4.869 5.987-10.695 17.322-12.611 24.585-2.155 8.221-1.757 22.668.717 30.49 7.024 21.471 23.867 35.12 44.859 36.318 18.598 1.038 35.12-7.503 42.064-21.71 2.475-5.108 2.714-6.226 2.714-12.771s-.24-7.662-2.635-12.531c-4.151-8.381-12.052-14.049-20.672-14.847-5.188-.479-5.668 1.038-1.278 3.912 4.31 2.873 6.068 5.668 6.467 10.537.718 9.259-3.673 17.081-11.734 20.753-2.873 1.277-5.347 1.676-11.254 1.676-6.705 0-8.141-.241-12.132-2.156-5.747-2.793-11.175-8.78-13.411-14.766-1.437-3.672-1.677-5.746-1.437-11.094.399-8.061 3.512-14.847 9.898-21.712 7.902-8.54 16.762-12.691 30.651-14.447 6.386-.798 8.859-.718 15.325.319 14.846 2.395 22.589 6.465 32.327 16.762 13.25 14.048 19.716 33.684 17.721 53.798-3.672 36.956-26.181 60.503-63.137 65.931-15.485 2.315-34.084 1.197-48.93-3.033-32.646-9.179-56.433-32.247-68.885-66.729-11.494-31.928-9.339-71.358 5.508-101.929 10.776-22.03 29.853-42.225 52.842-56.114 14.208-8.461 32.167-14.926 50.844-18.119 12.133-2.076 42.304-2.076 51.883.079 14.447 3.113 33.125 10.456 39.67 15.645 2.315 1.836 5.029 2.075 5.029.558 0-2.076-7.742-12.132-13.25-17.32-13.011-12.213-28.895-19.715-49.408-23.148-8.86-1.437-25.063-2.395-33.125-1.916z" fill="#ccff17"/></svg>
