<svg xmlns="http://www.w3.org/2000/svg" width="512" height="512" viewBox="0 0 512 512" preserveAspectRatio="xMidYMid meet"><path d="M302.748.212C264.536 2.66 227.819 12.45 192.871 29.584 126.918 61.677 78.644 114.44 53.486 181.617c-27.605 73.976-18.9 165.222 21.896 226.415 62.553 94.238 202.073 131.905 302.158 81.591 53.85-27.061 91.111-82.406 96.414-142.92 1.224-13.87.271-37.804-1.904-47.459-13.191-58.202-50.18-98.861-102.398-112.323-52.218-13.327-113.547 3.67-142.92 39.842-8.295 10.199-18.22 29.51-21.484 41.884-3.672 14.006-2.994 38.619 1.222 51.945 11.967 36.58 40.661 59.833 76.425 61.873 31.684 1.768 59.832-12.782 71.663-36.987 4.216-8.703 4.624-10.607 4.624-21.758s-.409-13.054-4.489-21.349c-7.071-14.278-20.532-23.935-35.218-25.295-8.839-.816-9.657 1.768-2.178 6.664 7.343 4.895 10.337 9.657 11.017 17.952 1.224 15.774-6.257 29.101-19.991 35.356-4.895 2.176-9.11 2.855-19.173 2.855-11.423 0-13.869-.41-20.669-3.673-9.791-4.759-19.039-14.958-22.847-25.157-2.448-6.255-2.857-9.789-2.449-18.9.68-13.734 5.984-25.295 16.863-36.99 13.462-14.55 28.557-21.621 52.219-24.613 10.879-1.36 15.093-1.223 26.108.544 25.293 4.08 38.484 11.015 55.074 28.557 22.573 23.933 33.59 57.386 30.19 91.654-6.255 62.961-44.603 103.076-107.564 112.323-26.381 3.944-58.067 2.039-83.36-5.168-55.618-15.638-96.143-54.937-117.356-113.683-19.582-54.394-15.91-121.57 9.383-173.652 18.358-37.532 50.86-71.937 90.024-95.599 24.205-14.414 54.801-25.428 86.621-30.868 20.67-3.536 72.072-3.536 88.39.135 24.613 5.303 56.433 17.814 67.584 26.653 3.944 3.128 8.568 3.535 8.568.951 0-3.536-13.19-20.669-22.573-29.508-22.166-20.806-49.227-33.588-84.175-39.436-15.094-2.448-42.699-4.08-56.434-3.264z" /></svg>
