<svg xmlns="http://www.w3.org/2000/svg" width="533.333" height="533.333" viewBox="0 0 400.000000 400.000000"><path d="M231.6 43.7c-.3.3-2.7.7-5.3.8-7.4.3-14.9 1.5-24.8 3.6-12 2.7-17.9 4.4-24 7-1.6.6-3.4 1.3-4 1.4-1.5.4-15.2 7.1-21 10.3-29.2 16-53.9 41.9-69.4 72.9-2.8 5.6-7.6 17.5-8.7 21.3-3.9 14.4-4.9 19-6 26.5-1.1 7-1.3 38.8-.4 44 .5 2.7 1.1 6.6 1.3 8.5.3 1.9.7 4.2 1 5 .4.8.8 2.8 1.1 4.5.6 4.1 4.1 15.5 5.9 19.6 7.3 16.7 12.5 25.4 21 35.4 6.3 7.3 10.1 11 19.2 18.4 8.3 6.7 19.7 14.3 21.1 14 .4 0 1 .3 1.3.8 1.2 1.6 15.8 8.1 25.2 11.2 7.1 2.3 7.2 2.4 16.9 4.5 11.2 2.5 16.1 2.9 32.5 3 16.7 0 19.9-.3 31.2-2.9 11.9-2.9 14.2-3.6 17.2-5.1 1.4-.8 3.4-1.4 4.3-1.4.9 0 1.9-.4 2.3-.9.3-.5 3.1-2.1 6.1-3.5 11.9-5.5 28.8-20 38.2-32.9 4.8-6.6 11.8-20.6 14.2-28.4 1.2-3.7 2.4-7.5 2.7-8.3 3.3-8.7 3.8-36.6.9-49-2.7-11.4-9-25.5-15-33.3-2-2.6-3.6-4.9-3.6-5.2 0-.8-9-9.4-13-12.4-1.9-1.4-3.7-2.8-4-3.1-.8-.8-5.1-3.2-11.1-6.1-11.4-5.6-23.7-8.2-37.9-8-6.4.1-16.5.8-16.5 1.1 0 .1-1.1.3-2.5.6-8.4 1.4-28.8 9.5-31 12.3-.3.3-2.5 2.2-5 4.1-9.6 7.5-16.5 17.3-21.1 30-3.2 9.2-3.3 27.5-.1 36.8 4 11.7 10.1 20 20.8 28.2 2.9 2.2 10.9 6 12.7 6 .9 0 1.8.4 2.2.9.3.6 1.3 1 2.3 1 .9 0 4.7.2 8.3.4 3.6.3 8.8.1 11.5-.4 2.7-.6 5.7-1.1 6.7-1.2.9-.1 1.7-.4 1.7-.8 0-.3 1.7-1.1 3.8-1.7 8.5-2.6 19.8-14.9 21.8-23.7 1-4.9.6-18.5-.7-18.5-.4 0-1.2-1.3-1.9-2.9-2-4.9-9.6-11.2-15.8-13.1-8.1-2.5-12.3-1.1-6 2.1 4.3 2.1 8.1 9.2 7.4 13.9-1.2 7.3-2.9 11.6-5.9 14.9-1.9 2-6.5 4.5-7.6 4.1-.2-.1-.7.4-1.2 1.2-.6.9-3.4 1.3-9.6 1.3-7.8 0-9.4-.3-14-2.9-2.8-1.6-6.3-4-7.6-5.5-2.5-2.6-8.2-12.1-7.3-12.1.2 0 0-1.6-.5-3.6-.8-2.5-.7-3.9.2-5 .7-.8.7-1.4.1-1.4-1.5 0 .1-6.1 3.3-12.7 5.8-11.7 18.3-20.9 32.6-23.9 6.1-1.3 17.7-1.8 22.4-1.1 19.5 3.1 34.2 13.3 44.1 30.7 3 5.2 7.6 17.8 7 18.9-.4.5-.2 1.1.3 1.3 2.5.9 2.8 19.6.5 32.3-.3 2.2-.7 4.6-.7 5.2 0 .7-.5 1.3-1 1.3-.6 0-.8.3-.4.6.7.7-3.1 11.1-6.2 16.9-5.6 10.5-14.8 19.9-25.7 26.3-5.6 3.3-20 8.8-25.4 9.6-1.9.4-5.3.9-7.5 1.3-5.2.8-26.8.8-32 0-11.7-1.9-15.6-2.7-16.8-3.4-.6-.4-1.8-.8-2.6-1-5.9-.8-22-8.3-29.4-13.6-7.6-5.4-21.7-18.9-21.7-20.7 0-.6-.3-1-.7-1-.5 0-2.1-2.1-3.8-4.8-1.6-2.6-3.2-4.9-3.6-5.2-1.1-.9-7.8-14.7-10.4-21.6-2.8-7.5-5.4-16.4-6-20.9-.2-1.7-.6-4.1-.9-5.5-.7-3.2-1.9-20.5-1.7-25 .3-9 1.6-22.5 2.1-22.5.1 0 .4-1.4.6-3 .3-1.7 1.2-5.5 2.1-8.5.9-3 1.8-6.2 1.9-7 .5-2.7 5.8-15.5 6.7-16.1.5-.3.9-1.2 1.1-2 .3-2.2 5.8-11.9 6.8-11.9.4 0 .8-.6.8-1.3 0-.6 1-2.4 2.3-3.9 1.2-1.4 4.2-5.2 6.7-8.4 14.9-18.8 40.8-36.4 66.3-44.9 9.8-3.3 12.7-4 19.2-5 1.7-.3 4.1-.7 5.5-1 12.4-2.5 41.7-2.5 54.5 0 6.4 1.3 14.9 3.7 19.8 5.7 8 3.1 9.1 3.5 10.2 3.8.6.1 2.1 1 3.5 2 4.8 3.3 11.9 6.9 12.4 6.2 1.1-1.7-11.3-17-18.5-22.7-4-3.2-8.8-6.5-9.4-6.5-.3 0-2.2-1.1-4.3-2.4-2-1.2-4-2.4-4.5-2.4-.4-.1-2.4-.9-4.5-1.8-9.6-4-25.6-7.3-38.2-7.9-3.6-.2-6.5-.4-6.5-.5 0-.1-1.5-.2-3.3-.3-1.7-.1-3.2.2-3.2.6 0 .4-.8.3-1.9-.2-1-.6-2.1-.7-2.5-.4z"/></svg>
